<?xml version="1.0" encoding="UTF-8"?>
<svg id="Layer_2" xmlns="http://www.w3.org/2000/svg" viewBox="0 0 656.01 310.6">
  <defs>
    <style>
      .cls-1 {
        fill: #3f9aa2;
      }
    </style>
  </defs>
  <g id="Layer_1-2" data-name="Layer_1">
    <g>
      <path class="cls-1" d="M339.14,243.27l6.24-24.64c-2.97.12-13.62.3-18.72-.22-4.53-.46-7.19-1.17-9.28-1.92,0,0-3.11-1.27-6.56-3.2-13.61-7.64-22.27-20.21-22.27-20.21-10.38-15.06-11.48-30.71-11.47-37.81.03-20.38,9.31-37.21,18.57-46.6,3.25-3.3,8.65-9.06,17.86-12.94,8.89-3.75,16.9-3.97,21.44-3.76,11.87.05,30.59.09,42.46.14l6.28-24.82c-22.9-.01-59.66-.02-59.91-.02-39.18,0-70.94,39.4-70.94,88.01s31.76,88.01,70.94,88.01c.14,0,10.6,0,15.37,0Z"/>
      <polygon class="cls-1" points="656.01 115.75 514.28 34.17 496.65 103.82 578.84 151.91 468.08 216.72 444.34 310.54 634.53 200.63 656.01 115.75"/>
      <path class="cls-1" d="M74.48,154.89l79.4-46.46c1.73-13.41,6.38-36.08,20.61-60.39,14.46-24.7,32.31-39.98,43.26-48.04C152.05,36.08,86.34,72.17,20.63,108.25L0,189.78c72.35,40.27,144.69,80.54,217.04,120.82-10.98-8.36-28.49-23.9-42.72-48.57-14.09-24.42-18.79-47.13-20.57-60.76l-79.26-46.38Z"/>
      <path class="cls-1" d="M316.55,39.12c2.03,0,49.91-.96,74.61-1.4L400.7,0h-96.16C235.42,0,179.39,69.52,179.39,155.27s56.03,155.27,125.15,155.27c1.37,0,2.78.04,2.78.04,3.13.03,12.66,0,14.74-.04l.43-1.49,9.39-37.12c-4.12-.28-14.35-.51-15.34-.51-51.7,0-93.62-52-93.62-116.15s41.91-116.15,93.62-116.15Z"/>
      <polygon class="cls-1" points="437.02 0 358.43 310.54 405.54 310.54 479.53 18.15 437.02 0"/>
    </g>
  </g>
</svg>